Coordinates
version=1
nRows=27
nColumns=12
inDegrees=yes

Units are S.I. units (second, meters, Newtons, ...)
Angles are in degrees

endheader
time	SC_y	SC_z	SC_x	AC_y	AC_z	AC_x	GH_y	GH_z	GH_yy	EL_x	PS_y
       0.0              -51.14          7.647          73.26          62.91          -5.14         -9.378         -111.0         -12.54          120.6          50.25          136.7
   0.03389              -51.14          7.647          73.26          62.91          -5.14         -9.378         -111.0         -12.53          120.6          50.25          136.7
   0.06779              -51.13          7.647          73.25          62.91         -5.141         -9.377         -111.0         -12.52          120.6          50.24          136.7
    0.1017              -51.13          7.647          73.24           62.9         -5.142         -9.376         -110.9         -12.51          120.6          50.23          136.7
    0.1356              -51.12          7.647          73.23           62.9         -5.143         -9.375         -110.9          -12.5          120.6          50.22          136.7
    0.1695              -51.12          7.647          73.22           62.9         -5.143         -9.375         -110.9         -12.49          120.5          50.22          136.6
    0.2034              -51.11          7.648          73.21           62.9         -5.144         -9.374         -110.8         -12.47          120.5          50.21          136.6
    0.2373              -51.11          7.648          73.19          62.89         -5.145         -9.373         -110.8         -12.46          120.5           50.2          136.6
    0.2711               -51.1          7.648          73.18          62.89         -5.146         -9.372         -110.7         -12.45          120.5          50.19          136.6
     0.305              -51.09          7.648          73.17          62.89         -5.147         -9.371         -110.7         -12.43          120.4          50.18          136.5
    0.3389              -51.09          7.649          73.15          62.88         -5.148         -9.369         -110.6         -12.42          120.4          50.16          136.5
    0.3728              -51.08          7.649          73.13          62.88         -5.149         -9.368         -110.6          -12.4          120.4          50.15          136.5
    0.4067              -51.07          7.649          73.12          62.87          -5.15         -9.367         -110.5         -12.38          120.3          50.14          136.4
    0.4406              -51.06           7.65           73.1          62.87         -5.152         -9.365         -110.5         -12.36          120.3          50.12          136.4
    0.4745              -51.05           7.65          73.08          62.86         -5.153         -9.364         -110.4         -12.34          120.2          50.11          136.4
    0.5084              -51.04           7.65          73.05          62.86         -5.155         -9.362         -110.3         -12.31          120.2          50.09          136.3
    0.5423              -51.03          7.651          73.03          62.85         -5.157          -9.36         -110.2         -12.29          120.1          50.07          136.3
    0.5762              -51.02          7.651           73.0          62.84         -5.159         -9.358         -110.2         -12.26          120.1          50.05          136.2
    0.6101               -51.0          7.652          72.97          62.83         -5.161         -9.356         -110.1         -12.23          120.0          50.03          136.2
     0.644              -50.99          7.652          72.94          62.83         -5.163         -9.353         -110.0          -12.2          119.9           50.0          136.1
    0.6779              -50.97          7.653          72.91          62.82         -5.165          -9.35         -109.8         -12.16          119.8          49.98          136.1
    0.7118              -50.95          7.653          72.87          62.81         -5.168         -9.347         -109.7         -12.12          119.8          49.95          136.0
    0.7457              -50.94          7.654          72.82           62.8         -5.171         -9.344         -109.6         -12.07          119.7          49.92          135.9
    0.7795              -50.91          7.655          72.78          62.78         -5.174         -9.341         -109.4         -12.02          119.5          49.88          135.8
    0.8134              -50.89          7.656          72.73          62.77         -5.178         -9.336         -109.2         -11.97          119.4          49.84          135.7
    0.8473              -50.86          7.657          72.67          62.75         -5.182         -9.332         -109.0         -11.91          119.3          49.79          135.6
    0.8812              -50.83          7.658           72.6          62.74         -5.187         -9.327         -108.8         -11.84          119.2          49.74          135.5
